<svg width="32" height="32" viewBox="0 0 32 32" fill="none" xmlns="http://www.w3.org/2000/svg">
<path d="M24.6863 8.3203C18.0376 1.8198 9.25361 0.681013 4.11631 5.70382C-0.535686 10.2521 0.982615 17.4779 7.31238 23.6666C13.9611 30.1671 22.7451 31.3059 27.8824 26.2831C32.5344 21.7416 31.0161 14.509 24.6863 8.3203ZM5.60688 27.0423C-1.23592 20.352 -2.06786 11.7705 4.51149 4.18546C9.71119 -1.82022 20.1383 -1.18305 26.4057 4.94464C33.2485 11.6349 34.0596 19.6267 27.4733 27.8354C21.3308 33.8275 11.8673 33.17 5.60688 27.0423Z" fill="#FF5F00"/>
<rect x="22.7852" y="16.6914" width="8" height="10" rx="4" transform="rotate(132 22.7852 16.6914)" fill="white"/>
</svg>
