<svg width="317" height="28" viewBox="0 0 317 28" fill="none" xmlns="http://www.w3.org/2000/svg">
<path d="M203.869 7.2933C198.266 1.62311 190.863 0.63605 186.539 5.01208C182.626 8.97134 183.905 15.2776 189.227 20.6737C194.83 26.3438 202.233 27.3309 206.557 22.9549C210.481 18.9956 209.202 12.6893 203.869 7.2933ZM187.796 23.6239C182.03 17.7892 181.336 10.3094 186.875 3.69597C191.254 -1.53553 200.043 -0.987145 205.322 4.35402C211.088 10.1887 211.77 17.1531 206.221 24.3149C201.041 29.5354 193.063 28.9651 187.796 23.6239Z" fill="#A54634"/>
<path d="M86.6526 27.4843L65.1601 1.11846V27.4843H64.7808V0.438477H67.7939L87.4113 23.6457V0.438477H87.7798V27.4843H86.6526Z" fill="#A54634"/>
<path d="M297.393 27.5504L275.89 1.16264V27.5504H275.522V0.47168H278.524L298.141 23.7118V0.47168H298.521V27.5504H297.393Z" fill="#A54634"/>
<path d="M99.3443 27.4843V0.811367H90.3918V0.438477H110.941V0.811367H101.989V27.4843H99.3443Z" fill="#A54634"/>
<path d="M146.188 27.32C151.791 27.32 155.671 21.9789 155.671 13.6984C155.671 5.95536 152.777 0.625175 145.624 0.625175L140.768 0.822581V27.1336L146.188 27.32ZM134.298 27.32L138.135 27.1226V0.822581L134.298 0.625175V0.427734H145.927C153.493 0.427734 158.684 5.11088 158.684 13.5449C158.684 21.4744 154.241 27.5065 146.003 27.5065H134.298V27.32Z" fill="#A54634"/>
<path d="M237.403 0.449707H234.769V27.4955H237.403V0.449707Z" fill="#A54634"/>
<path d="M271.62 0.449707H268.986V27.4955H271.62V0.449707Z" fill="#A54634"/>
<path d="M10.9467 13.183L6.68724 10.8579C3.59831 9.17983 2.46029 7.72117 2.46029 5.59348C2.46029 2.76386 4.5846 0.80067 7.66269 0.71293C7.81442 0.701962 8.00951 0.701962 8.23712 0.71293C8.28047 0.71293 8.32384 0.723908 8.35636 0.723908C8.38887 0.723908 8.42137 0.723885 8.44305 0.734853C9.25593 0.78969 10.0471 0.976148 10.795 1.29421C11.7921 1.68904 12.9085 2.35804 13.9815 3.44382C14.35 3.81672 14.7618 4.22251 15.2062 4.63928V1.7C13.5046 0.712923 10.6758 0.0219727 8.30218 0.0219727C3.24067 1.00905 0.379316 3.57545 0.379316 7.16182C0.379316 9.60757 1.50651 11.0991 4.75802 12.8868L9.01748 15.2119C12.3774 17.0874 13.7755 18.9189 13.7755 21.5182C13.7755 24.5891 11.7379 26.6401 8.55144 26.8155C8.55144 26.8155 5.05066 27.342 1.88586 24.1176C1.84251 24.0737 1.79915 24.0189 1.74496 23.975C1.71244 23.9421 1.67994 23.9201 1.65827 23.8872C1.1597 23.3937 0.596109 22.8453 0 22.286V25.7188C2.26521 27.2433 4.45456 27.8904 7.31588 27.8904C12.8976 26.3988 15.8457 23.613 15.8457 19.8293C15.8565 17.0764 14.3825 15.0913 10.9467 13.183Z" fill="#A54634"/>
<path d="M312.079 13.2599L307.809 10.9348C304.709 9.25673 303.582 7.79805 303.582 5.65939C303.582 2.82978 305.706 0.866577 308.795 0.76787C308.947 0.756902 309.142 0.756902 309.37 0.76787C309.413 0.76787 309.457 0.778848 309.489 0.778848C309.522 0.778848 309.543 0.778859 309.576 0.789826C310.389 0.844663 311.18 1.03109 311.938 1.34915C312.936 1.74397 314.052 2.41299 315.125 3.50974C315.493 3.88264 315.905 4.28846 316.35 4.70523V1.76592C314.648 0.767874 311.819 0.0878906 309.435 0.0878906C304.373 1.08593 301.501 3.64138 301.501 7.23872C301.501 9.68447 302.628 11.176 305.88 12.9747L310.15 15.3108C313.51 17.1862 314.908 19.0178 314.908 21.6171C314.908 24.688 312.871 26.7389 309.684 26.9144C309.684 26.9144 306.183 27.4408 303.018 24.2164C302.975 24.1725 302.932 24.1177 302.878 24.0738C302.845 24.0409 302.823 24.0189 302.791 23.986C302.292 23.4925 301.729 22.9442 301.133 22.3848V25.8176C303.398 27.3421 305.587 28.0002 308.459 28.0002C314.052 26.5086 317 23.7229 317 19.9391C316.989 17.1643 315.515 15.1682 312.079 13.2599Z" fill="#A54634"/>
<path d="M33.3821 27.3858C33.3713 27.3858 33.3604 27.3858 33.3604 27.3858C33.3062 27.3858 33.2628 27.3858 33.2086 27.3858C25.7735 27.3858 22.793 20.6627 22.793 13.83C22.793 4.85858 27.3993 0.383869 32.645 0.383869C32.8943 0.383869 33.1328 0.394824 33.3604 0.405792C34.8561 0.493532 38.075 0.537394 41.4458 3.07088V2.02899C39.2564 0.888373 36.3084 0 32.7968 0C25.2099 0.690952 19.7691 5.92245 19.7691 14.3674C19.7691 23.0427 25.882 27.8904 32.4933 27.8904C36.1567 27.4736 38.7253 26.6729 41.4458 25.3678V24.4904C38.5411 26.4865 36.0483 27.0897 34.4008 27.2981C34.054 27.3419 33.7181 27.3749 33.3821 27.3858Z" fill="#A54634"/>
<path d="M47.9815 27.1004V13.9833H58.3429V13.5995H47.9815V0.811367H61.8329V0.438477H45.3478V27.4843H62.1689V27.1004H47.9815Z" fill="#A54634"/>
<path d="M117.499 27.1004V14.0272H127.86V13.6433H117.499V0.811367H131.35V0.438477H114.865V27.4843H131.686V27.1004H117.499Z" fill="#A54634"/>
<path d="M255.427 0.460496C255.698 0.460496 255.958 0.471484 256.208 0.482452C257.855 0.570192 261.378 0.614054 265.063 3.14754V2.10562C262.667 0.954033 259.437 0.0766602 255.59 0.0766602C247.277 0.767612 241.316 5.99908 241.316 14.444C241.316 23.1193 248.014 27.9669 255.265 27.9669C259.275 27.5502 262.093 26.7496 265.073 25.4444V25.1484V24.567V15.5957H259.199V15.7821L262.711 16.0453V24.7974C262.407 25.8283 259.546 26.947 259.394 27.0128C258.625 27.1992 257.931 27.3089 257.346 27.3747C256.977 27.4296 256.609 27.4625 256.24 27.4735C256.229 27.4735 256.219 27.4735 256.219 27.4735C256.164 27.4735 256.11 27.4735 256.056 27.4735C247.905 27.4735 244.632 20.7504 244.632 13.9066C244.632 4.93524 249.672 0.460496 255.427 0.460496Z" fill="#A54634"/>
<path d="M223.433 0.438477H216.875H213.949H213.927V27.5392H216.886V11.9543H216.865V0.745565L221.959 0.778466C225.091 0.833304 227.66 1.89716 228.733 4.41968H232.157C230.781 1.45846 226.998 0.438477 223.433 0.438477Z" fill="#A54634"/>
</svg>
