<svg width="317" height="28" viewBox="0 0 317 28" fill="none" xmlns="http://www.w3.org/2000/svg">
<path d="M203.869 7.2933C198.266 1.62311 190.863 0.63605 186.539 5.01208C182.626 8.97134 183.905 15.2776 189.227 20.6737C194.83 26.3438 202.233 27.3309 206.557 22.9549C210.481 18.9956 209.202 12.6893 203.869 7.2933ZM187.796 23.6239C182.03 17.7892 181.336 10.3094 186.875 3.69597C191.254 -1.53553 200.043 -0.987145 205.322 4.35402C211.088 10.1887 211.77 17.1531 206.221 24.3149C201.041 29.5354 193.063 28.9651 187.796 23.6239Z" fill="#A54634"/>
<path d="M86.6525 27.4844L65.1601 1.11858V27.4844H64.7808V0.438599H67.7939L87.4112 23.6458V0.438599H87.7797V27.4844H86.6525Z" fill="#A54634"/>
<path d="M297.393 27.5501L275.89 1.16239V27.5501H275.521V0.471436H278.524L298.141 23.7115V0.471436H298.52V27.5501H297.393Z" fill="#A54634"/>
<path d="M99.3443 27.4844V0.811489H90.3918V0.438599H110.941V0.811489H101.989V27.4844H99.3443Z" fill="#A54634"/>
<path d="M146.187 27.3199C151.791 27.3199 155.671 21.9787 155.671 13.6983C155.671 5.95523 152.777 0.625053 145.624 0.625053L140.768 0.822459V27.1335L146.187 27.3199ZM134.298 27.3199L138.135 27.1225V0.822459L134.298 0.625053V0.427612H145.927C153.493 0.427612 158.684 5.11075 158.684 13.5448C158.684 21.4742 154.24 27.5063 146.003 27.5063H134.298V27.3199Z" fill="#A54634"/>
<path d="M237.403 0.449585H234.77V27.4954H237.403V0.449585Z" fill="#A54634"/>
<path d="M271.62 0.449585H268.986V27.4954H271.62V0.449585Z" fill="#A54634"/>
<path d="M10.9467 13.183L6.68724 10.8579C3.59831 9.17983 2.46029 7.72117 2.46029 5.59348C2.46029 2.76386 4.5846 0.80067 7.66269 0.71293C7.81442 0.701962 8.00951 0.701962 8.23712 0.71293C8.28047 0.71293 8.32384 0.723908 8.35636 0.723908C8.38887 0.723908 8.42137 0.723885 8.44305 0.734853C9.25593 0.78969 10.0471 0.976148 10.795 1.29421C11.7921 1.68904 12.9085 2.35804 13.9815 3.44382C14.35 3.81672 14.7618 4.22251 15.2062 4.63928V1.7C13.5046 0.712923 10.6758 0.0219727 8.30218 0.0219727C3.24067 1.00905 0.379316 3.57545 0.379316 7.16182C0.379316 9.60757 1.50651 11.0991 4.75802 12.8868L9.01748 15.2119C12.3774 17.0874 13.7755 18.9189 13.7755 21.5182C13.7755 24.5891 11.7379 26.6401 8.55144 26.8155C8.55144 26.8155 5.05066 27.342 1.88586 24.1176C1.84251 24.0737 1.79915 24.0189 1.74496 23.975C1.71244 23.9421 1.67994 23.9201 1.65827 23.8872C1.1597 23.3937 0.596109 22.8453 0 22.286V25.7188C2.26521 27.2433 4.45456 27.8904 7.31588 27.8904C12.8976 26.3988 15.8457 23.613 15.8457 19.8293C15.8565 17.0764 14.3825 15.0913 10.9467 13.183Z" fill="#A54634"/>
<path d="M312.079 13.2596L307.809 10.9345C304.709 9.25648 303.582 7.79781 303.582 5.65915C303.582 2.82954 305.706 0.866333 308.795 0.767625C308.947 0.756658 309.142 0.756658 309.37 0.767625C309.413 0.767625 309.456 0.778604 309.489 0.778604C309.521 0.778604 309.543 0.778614 309.576 0.789582C310.388 0.844419 311.18 1.03084 311.938 1.3489C312.935 1.74373 314.052 2.41275 315.125 3.5095C315.493 3.88239 315.905 4.28822 316.35 4.70498V1.76567C314.648 0.767629 311.819 0.0876465 309.435 0.0876465C304.373 1.08569 301.501 3.64113 301.501 7.23847C301.501 9.68422 302.628 11.1758 305.88 12.9744L310.15 15.3105C313.51 17.186 314.908 19.0175 314.908 21.6168C314.908 24.6877 312.871 26.7387 309.684 26.9142C309.684 26.9142 306.183 27.4406 303.018 24.2161C302.975 24.1723 302.932 24.1174 302.878 24.0735C302.845 24.0406 302.823 24.0187 302.791 23.9858C302.292 23.4922 301.729 22.9439 301.133 22.3846V25.8174C303.398 27.3419 305.587 27.9999 308.459 27.9999C314.052 26.5083 317 23.7226 317 19.9388C316.989 17.1641 315.515 15.168 312.079 13.2596Z" fill="#A54634"/>
<path d="M33.382 27.3858C33.3712 27.3858 33.3603 27.3858 33.3603 27.3858C33.3061 27.3858 33.2628 27.3858 33.2086 27.3858C25.7735 27.3858 22.793 20.6627 22.793 13.83C22.793 4.85858 27.3992 0.383869 32.645 0.383869C32.8943 0.383869 33.1327 0.394824 33.3603 0.405792C34.856 0.493532 38.075 0.537394 41.4457 3.07088V2.02899C39.2564 0.888373 36.3083 0 32.7967 0C25.2099 0.690952 19.769 5.92245 19.769 14.3674C19.769 23.0427 25.8819 27.8904 32.4933 27.8904C36.1566 27.4736 38.7253 26.6729 41.4457 25.3678V24.4904C38.541 26.4865 36.0482 27.0897 34.4008 27.2981C34.054 27.3419 33.718 27.3749 33.382 27.3858Z" fill="#A54634"/>
<path d="M47.9814 27.1006V13.9835H58.3428V13.5996H47.9814V0.811489H61.8328V0.438599H45.3477V27.4844H62.1688V27.1006H47.9814Z" fill="#A54634"/>
<path d="M117.498 27.1006V14.0273H127.86V13.6435H117.498V0.811489H131.35V0.438599H114.865V27.4844H131.686V27.1006H117.498Z" fill="#A54634"/>
<path d="M255.427 0.460618C255.698 0.460618 255.958 0.471606 256.208 0.482574C257.855 0.570314 261.377 0.614176 265.062 3.14767V2.10574C262.667 0.954155 259.437 0.0767822 255.59 0.0767822C247.277 0.767734 241.316 5.9992 241.316 14.4442C241.316 23.1195 248.014 27.9671 255.265 27.9671C259.275 27.5503 262.093 26.7497 265.073 25.4446V25.1485V24.5672V15.5958H259.199V15.7822L262.711 16.0454V24.7975C262.407 25.8285 259.546 26.9471 259.394 27.0129C258.625 27.1993 257.931 27.309 257.346 27.3748C256.977 27.4297 256.609 27.4626 256.24 27.4736C256.229 27.4736 256.218 27.4736 256.218 27.4736C256.164 27.4736 256.11 27.4736 256.056 27.4736C247.905 27.4736 244.632 20.7505 244.632 13.9068C244.632 4.93536 249.672 0.460618 255.427 0.460618Z" fill="#A54634"/>
<path d="M223.432 0.438599H216.875H213.949H213.927V27.5393H216.886V11.9545H216.864V0.745687L221.958 0.778588C225.091 0.833426 227.659 1.89728 228.732 4.4198H232.157C230.781 1.45858 226.998 0.438599 223.432 0.438599Z" fill="#A54634"/>
</svg>
